<svg width="434" height="358" viewBox="0 0 434 358" fill="none" xmlns="http://www.w3.org/2000/svg">
<path d="M292.19 2.04272C286.476 4.32844 281.651 8.51891 279.492 13.0903C278.349 15.503 276.063 25.5348 274.539 35.4395C267.936 78.3601 242.539 232.138 241.778 233.916C241.016 235.947 233.27 202.677 219.301 137.281C215.238 118.233 210.92 98.2966 209.778 92.9633C207.492 82.2966 203.809 76.7093 196.825 73.0268C191.492 70.3601 180.444 70.3601 175.238 73.0268C166.095 77.7252 165.333 79.503 154.667 122.424L144.635 162.677L76.4444 163.312C2.66666 164.074 5.84126 163.693 1.90476 171.439C-0.63492 176.265 -0.63492 181.09 1.90476 186.043C6.22222 194.297 4.44444 194.043 87.111 193.662L162.413 193.281L165.968 189.979C171.428 184.9 172.444 181.852 178.667 155.693C181.841 142.233 184.762 131.312 185.27 131.312C186.032 131.312 195.682 174.36 210.793 244.582C216.889 273.281 220.952 289.408 222.857 292.455C230.603 304.9 252.444 304.773 261.079 292.074C264.508 286.868 268.444 265.535 288 145.916C299.301 76.4553 299.936 72.5189 300.698 74.6776C300.952 75.4395 307.174 117.344 314.539 168.011C337.016 323.566 339.936 342.106 341.841 345.788C347.682 356.963 361.65 361.28 373.206 355.312C379.555 352.138 383.365 347.058 385.143 339.185C386.539 333.471 400.508 256.519 407.238 217.281C409.142 206.36 410.92 195.947 411.301 194.297C411.936 191.503 412.698 191.249 422.73 191.249H433.396L433.015 176.519L432.635 161.662L413.968 161.916C384 162.17 386.158 158.741 373.841 229.344C368.508 259.947 363.809 285.217 363.428 285.598C362.92 286.106 362.666 286.106 362.666 285.598C362.666 284.836 351.238 206.106 331.936 73.2808C322.666 10.2967 322.158 8.64589 311.492 3.43955C305.524 0.518916 297.397 -0.116004 292.19 2.04272Z" fill="#F8CB39"/>
<path d="M6.3512 112.886C-1.26784 118.854 -1.77578 129.521 5.33533 136.378L9.39881 140.187L58.2877 140.568C110.351 140.949 112.383 140.822 117.335 134.473C120.256 130.791 120.764 122.791 118.351 117.457C115.05 110.346 113.653 110.219 59.5575 110.219C11.9385 110.219 9.5258 110.346 6.3512 112.886Z" fill="white"/>
<path d="M9.90402 218.788C4.18974 221.327 1.14212 225.264 0.380216 231.105C-0.254704 237.454 1.90402 241.899 7.87227 245.835L12.3167 248.883L68.1897 248.883C127.364 248.883 129.523 248.629 135.11 242.534C140.698 236.184 138.793 224.375 131.428 219.423C127.364 216.756 15.8723 215.994 9.90402 218.788Z" fill="white"/>
</svg>
